<svg xmlns="http://www.w3.org/2000/svg" width="800" height="1000" viewBox="0 0 800 1000">
  <style>
    .word {
      fill: var(--accent-primary, #10B981);
      opacity: 0.08;
      font-family: var(--font-sans), system-ui, sans-serif;
      font-weight: 500;
    }
    .word-serif {
      font-family: var(--font-serif), Georgia, serif;
    }
    .word-mono {
      font-family: var(--font-mono), monospace;
    }
  </style>
  
  <!-- Column 1 -->
  <text x="50" y="80" font-size="28" class="word word-serif">Hello</text>
  <text x="80" y="140" font-size="18" class="word">Bonjour</text>
  <text x="40" y="210" font-size="32" class="word">Hola</text>
  <text x="120" y="270" font-size="22" class="word word-mono">Ciao</text>
  <text x="60" y="340" font-size="26" class="word word-serif">வணக்கம்</text>
  <text x="90" y="410" font-size="16" class="word">Sveiki</text>
  <text x="30" y="480" font-size="36" class="word word-serif">हैலோ</text>
  <text x="110" y="540" font-size="20" class="word">Merhaba</text>
  <text x="50" y="610" font-size="24" class="word">Hej</text>
  <text x="140" y="670" font-size="18" class="word word-mono">Alo</text>
  <text x="70" y="740" font-size="30" class="word word-serif">こんにちは</text>
  <text x="30" y="810" font-size="22" class="word">Guten Tag</text>
  <text x="120" y="870" font-size="28" class="word word-serif">你好</text>
  <text x="60" y="930" font-size="16" class="word">Zdravstvuyte</text>
  
  <!-- Column 2 -->
  <text x="320" y="60" font-size="16" class="word">Slam</text>
  <text x="250" y="120" font-size="28" class="word word-serif">வணக்கம்</text>
  <text x="360" y="190" font-size="20" class="word">Olá</text>
  <text x="280" y="250" font-size="24" class="word word-mono">G'day</text>
  <text x="330" y="320" font-size="18" class="word">Salut</text>
  <text x="260" y="390" font-size="32" class="word word-serif">你好</text>
  <text x="380" y="450" font-size="16" class="word">Ahoj</text>
  <text x="290" y="520" font-size="26" class="word">Bonjour</text>
  <text x="350" y="580" font-size="22" class="word word-mono">Hej</text>
  <text x="270" y="650" font-size="30" class="word word-serif">हैலோ</text>
  <text x="360" y="710" font-size="16" class="word">Sveiki</text>
  <text x="300" y="780" font-size="28" class="word">안녕하세요</text>
  <text x="260" y="850" font-size="20" class="word word-mono">Ciao</text>
  <text x="340" y="910" font-size="24" class="word word-serif">Hola</text>
  <text x="290" y="970" font-size="18" class="word">Merhaba</text>
  
  <!-- Column 3 -->
  <text x="580" y="90" font-size="32" class="word word-serif">Guten Tag</text>
  <text x="650" y="150" font-size="16" class="word">Zdravstvuyte</text>
  <text x="560" y="220" font-size="24" class="word">Merhaba</text>
  <text x="620" y="280" font-size="20" class="word word-mono">Olá</text>
  <text x="590" y="350" font-size="28" class="word word-serif">안녕하세요</text>
  <text x="670" y="420" font-size="18" class="word">Salut</text>
  <text x="550" y="490" font-size="30" class="word">Hello</text>
  <text x="630" y="550" font-size="16" class="word word-mono">Ahoj</text>
  <text x="580" y="620" font-size="22" class="word word-serif">こんにちは</text>
  <text x="660" y="680" font-size="26" class="word">Ciao</text>
  <text x="560" y="750" font-size="18" class="word">G'day</text>
  <text x="620" y="810" font-size="34" class="word word-serif">வணக்கம்</text>
  <text x="570" y="880" font-size="20" class="word">Hej</text>
  <text x="640" y="940" font-size="24" class="word word-mono">Slam</text>
  
  <!-- Extra Scattered Words at angles for dynamic feel -->
  <text x="210" y="170" font-size="22" class="word" transform="rotate(15, 210, 170)">Hello</text>
  <text x="490" y="110" font-size="18" class="word" transform="rotate(-10, 490, 110)">Bonjour</text>
  <text x="180" y="450" font-size="24" class="word" transform="rotate(-15, 180, 450)">Hola</text>
  <text x="480" y="380" font-size="26" class="word" transform="rotate(12, 480, 380)">Ciao</text>
  <text x="200" y="720" font-size="18" class="word" transform="rotate(8, 200, 720)">Olá</text>
  <text x="500" y="790" font-size="28" class="word" transform="rotate(-12, 500, 790)">வணக்கம்</text>
  <text x="190" y="920" font-size="20" class="word" transform="rotate(-8, 190, 920)">Merhaba</text>
  <text x="470" y="660" font-size="22" class="word" transform="rotate(15, 470, 660)">हैலோ</text>
</svg>
